<?xml version="1.0" standalone="no"?>
<!DOCTYPE svg PUBLIC "-//W3C//DTD SVG 20010904//EN"
 "http://www.w3.org/TR/2001/REC-SVG-20010904/DTD/svg10.dtd">
<svg version="1.0" xmlns="http://www.w3.org/2000/svg"
 width="1125.000000pt" height="679.000000pt" viewBox="0 0 1125.000000 679.000000"
 preserveAspectRatio="xMidYMid meet">

<g transform="translate(0.000000,679.000000) scale(0.100000,-0.100000)"
fill="#000000" stroke="none">
<path d="M2230 5675 l0 -1110 -1115 -1115 -1115 -1115 1115 -1115 1115 -1115
1115 1115 1115 1115 -2 1115 -1 1115 -1114 1110 -1113 1110 0 -1110z"/>
<path d="M5051 2295 c-128 -36 -200 -124 -201 -243 0 -127 72 -202 274 -282
77 -31 142 -92 151 -143 16 -84 -36 -166 -118 -188 -63 -17 -177 -5 -242 25
-39 18 -57 22 -60 13 -2 -7 -8 -27 -14 -46 -6 -19 -11 -37 -11 -42 0 -20 119
-52 211 -57 226 -11 359 89 359 271 0 142 -65 210 -281 296 -30 12 -72 35 -92
52 -82 68 -69 185 26 236 42 23 167 22 221 0 54 -24 61 -22 74 22 17 56 16 58
-35 76 -70 23 -196 28 -262 10z"/>
<path d="M8250 2294 c-19 -2 -50 -7 -67 -10 l-33 -5 0 -468 0 -469 115 -7
c253 -16 438 35 542 148 80 87 123 207 123 349 0 231 -103 379 -310 443 -54
17 -288 29 -370 19z m311 -110 c161 -47 239 -163 239 -355 0 -244 -128 -380
-371 -396 -47 -3 -102 -3 -123 1 l-36 7 0 374 c0 347 1 374 18 378 45 12 222
6 273 -9z"/>
<path d="M5708 2183 c-19 -60 -92 -273 -161 -475 l-125 -368 63 0 63 0 49 148
50 147 169 3 169 2 51 -147 51 -148 66 -3 66 -3 -131 383 c-71 211 -144 425
-161 476 l-31 92 -76 0 -76 0 -36 -107z m185 -240 l65 -203 -139 0 c-76 0
-139 3 -139 6 0 4 29 96 65 206 36 109 65 206 66 216 1 25 6 10 82 -225z"/>
<path d="M6140 2240 l0 -50 145 0 145 0 0 -425 0 -425 60 0 60 0 0 425 0 425
145 0 145 0 0 50 0 50 -350 0 -350 0 0 -50z"/>
<path d="M6942 1938 c3 -344 4 -355 27 -413 16 -41 40 -76 77 -112 69 -68 129
-87 259 -81 147 6 236 62 291 183 36 80 44 160 44 478 l0 297 -65 0 -64 0 -3
-347 -3 -348 -28 -52 c-17 -34 -43 -63 -69 -80 -37 -25 -51 -28 -123 -28 -92
0 -132 19 -173 81 -46 70 -52 126 -52 461 l0 313 -61 0 -60 0 3 -352z"/>
<path d="M9276 2281 c-8 -13 -316 -922 -316 -933 0 -5 28 -8 62 -6 l61 3 50
148 49 147 168 0 168 0 49 -147 50 -148 68 -3 c52 -2 66 0 63 10 -12 31 -318
930 -318 934 0 8 -149 4 -154 -5z m98 -186 c8 -33 38 -124 66 -203 27 -79 50
-145 50 -148 0 -2 -63 -4 -141 -4 -109 0 -140 3 -136 13 23 62 117 361 123
391 8 46 16 36 38 -49z"/>
<path d="M9690 2240 l0 -50 145 0 145 0 0 -425 0 -425 65 0 65 0 0 425 0 425
145 0 145 0 0 50 0 50 -355 0 -355 0 0 -50z"/>
<path d="M10661 2268 c-23 -62 -311 -914 -311 -921 0 -4 28 -7 62 -5 l61 3 50
148 49 147 168 0 168 0 52 -150 52 -150 64 0 c35 0 64 2 64 4 0 2 -72 214
-160 472 -88 257 -160 469 -160 471 0 2 -34 3 -75 3 -69 0 -76 -2 -84 -22z
m89 -114 c0 -12 103 -336 127 -401 4 -10 -27 -13 -137 -13 -111 0 -141 3 -137
13 21 54 127 391 127 402 0 8 5 15 10 15 6 0 10 -7 10 -16z"/>
<path d="M7225 1053 c-203 -73 -305 -234 -305 -480 0 -161 40 -274 129 -363
199 -199 548 -142 675 109 41 80 57 155 57 272 0 166 -46 286 -145 377 -74 69
-142 94 -261 99 -78 3 -111 0 -150 -14z m240 -107 c175 -81 244 -369 140 -583
-43 -87 -98 -137 -174 -160 -166 -48 -316 51 -367 242 -28 103 -14 264 30 357
69 144 234 209 371 144z"/>
<path d="M9655 1052 c-111 -38 -179 -128 -179 -237 1 -118 70 -196 237 -266
73 -30 114 -55 145 -84 40 -40 42 -45 42 -102 0 -167 -166 -216 -401 -119 -12
5 -18 -3 -27 -32 -20 -67 -18 -69 61 -94 55 -18 95 -23 172 -23 88 1 107 4
160 28 117 54 160 119 160 242 0 67 -4 87 -25 125 -32 57 -101 108 -200 150
-153 62 -200 107 -200 187 0 130 164 182 341 109 13 -6 21 3 34 39 11 27 14
49 9 55 -41 38 -242 52 -329 22z"/>
<path d="M4830 585 l0 -475 60 0 60 0 0 475 0 475 -60 0 -60 0 0 -475z"/>
<path d="M5140 585 l0 -475 55 0 56 0 -3 395 c-2 217 -2 395 -1 395 0 0 25
-44 53 -97 29 -54 136 -231 238 -395 l185 -298 64 0 63 0 0 475 0 475 -56 0
-55 0 3 -390 c2 -215 2 -390 1 -390 -1 0 -25 44 -52 98 -28 53 -133 228 -234
387 l-183 290 -67 3 -67 3 0 -476z"/>
<path d="M6093 1053 l-43 -4 0 -468 0 -469 23 -6 c44 -12 312 -6 380 9 177 37
291 132 348 290 19 50 22 82 23 195 0 119 -2 142 -23 193 -45 114 -143 204
-266 244 -37 12 -95 17 -225 18 -96 1 -194 1 -217 -2z m383 -109 c103 -33 181
-111 210 -211 12 -42 15 -83 12 -164 -4 -96 -8 -114 -36 -172 -38 -76 -92
-129 -171 -166 -51 -24 -66 -26 -186 -26 l-130 0 0 375 0 375 45 7 c66 9 200
0 256 -18z"/>
<path d="M7920 585 l0 -475 56 0 55 0 -3 395 c-2 217 -2 395 -1 395 1 0 26
-46 56 -102 29 -57 136 -235 237 -396 l182 -292 64 0 64 0 0 475 0 475 -56 0
-55 0 3 -393 3 -394 -56 106 c-31 59 -137 234 -236 391 l-180 285 -67 3 -66 3
0 -476z"/>
<path d="M8830 585 l0 -475 270 0 270 0 0 50 0 50 -210 0 -210 0 0 170 0 170
185 0 185 0 0 50 0 50 -182 2 -183 3 -3 148 -3 147 196 0 195 0 0 55 0 55
-255 0 -255 0 0 -475z"/>
<path d="M10170 585 l0 -475 60 0 60 0 0 475 0 475 -60 0 -60 0 0 -475z"/>
<path d="M10730 1028 c-20 -58 -310 -911 -310 -915 0 -1 28 -3 63 -3 l63 0 48
145 48 145 170 -2 171 -3 47 -140 47 -140 68 -3 c60 -3 67 -1 61 14 -4 9 -77
223 -163 475 l-156 459 -72 0 -73 0 -12 -32z m100 -150 c7 -29 37 -122 66
-207 30 -85 54 -158 54 -163 0 -4 -63 -8 -140 -8 -77 0 -140 1 -140 3 0 1 24
75 53 162 30 88 60 184 66 213 7 28 17 52 21 52 4 0 14 -24 20 -52z"/>
</g>
</svg>
