<?xml version="1.0" encoding="UTF-8"?>
<!DOCTYPE svg PUBLIC "-//W3C//DTD SVG 1.1//EN" "http://www.w3.org/Graphics/SVG/1.1/DTD/svg11.dtd">
<!-- Creator: CorelDRAW 2019 (64-Bit) -->
<svg xmlns="http://www.w3.org/2000/svg" xml:space="preserve" width="521px" height="480px" version="1.1" style="shape-rendering:geometricPrecision; text-rendering:geometricPrecision; image-rendering:optimizeQuality; fill-rule:evenodd; clip-rule:evenodd"
viewBox="0 0 521 480.17"
 xmlns:xlink="http://www.w3.org/1999/xlink"
 xmlns:xodm="http://www.corel.com/coreldraw/odm/2003">
 <defs>
  <style type="text/css">
   <![CDATA[
    .fil1 {fill:#F08519}
    .fil0 {fill:#72BB38}
    .fil2 {fill:#2F318B;fill-rule:nonzero}
   ]]>
  </style>
 </defs>
 <g id="Layer_x0020_1">
  <metadata id="CorelCorpID_0Corel-Layer"/>
  <g id="_2495305161328">
   <path class="fil0" d="M277.02 34.09c54.18,8.55 78.38,39.52 66.74,90.54 -30.9,-8.82 -70.71,-4.27 -119.42,13.66 42.57,-27.66 60.14,-62.4 52.68,-104.2z"/>
   <path class="fil1" d="M191.55 2.09c46.01,-7.02 74.5,3.65 85.47,32 -41.48,-0.26 -76.87,7.94 -106.15,24.59 9.41,-25.48 16.3,-44.35 20.68,-56.59z"/>
   <path class="fil2" d="M41.87 353.31l-16.89 23.12 13.4 26.05 -12.56 0 -12.02 -23.06 -3.81 23.06 -9.99 0 8.13 -49.17 9.99 0 -3.66 22.14 16.39 -22.14 11.02 0zm155.5 -174.07c114.16,-67.78 182.65,-20.33 172.66,24.15 -4.82,21.49 -17.73,47.5 -42.63,70.42 -37.55,34.56 -97.16,61.71 -156,52.61 50.35,-21.74 78.41,-49.06 91.96,-73.17 26.4,-46.98 -8.04,-80.28 -65.99,-74.01zm-60.28 235.17l17.3 0c4.13,0 7.21,1.23 9.24,3.67 2.04,2.43 2.83,5.33 2.38,8.67 -0.57,4.28 -2.84,7.55 -6.79,9.83 2.64,0.89 4.54,2.47 5.71,4.71 1.16,2.25 1.55,4.88 1.15,7.87 -0.57,4.27 -2.23,7.74 -4.97,10.41 -2.75,2.68 -6.44,4.01 -11.08,4.01l-19.49 0 6.55 -49.17zm8.79 9.01l-1.4 10.53 5.2 0c1.6,0 2.92,-0.5 3.95,-1.51 1.02,-1.01 1.64,-2.27 1.85,-3.8 0.19,-1.5 -0.09,-2.75 -0.85,-3.74 -0.76,-0.98 -1.95,-1.48 -3.54,-1.48l-5.21 0zm-2.6 19.54l-1.55 11.61 5.59 0c2.65,0 4.62,-0.46 5.9,-1.36 1.28,-0.9 2.07,-2.46 2.37,-4.7 0.22,-1.7 -0.14,-3.06 -1.12,-4.06 -0.97,-0.99 -2.38,-1.49 -4.23,-1.49l-6.96 0zm56.04 12.48l-0.77 5.82c-3.11,2.03 -5.9,3.05 -8.39,3.05 -2.68,0 -4.1,-1.25 -4.27,-3.74 -3.3,2.49 -6.44,3.74 -9.42,3.74 -2.1,0 -3.79,-0.82 -5.04,-2.46 -1.26,-1.64 -1.74,-3.54 -1.45,-5.72 0.39,-2.89 1.46,-5.24 3.22,-7.01 1.75,-1.78 6.67,-4.08 14.74,-6.88 0.69,-3.75 -0.63,-5.62 -3.95,-5.62 -3.63,0 -7.2,1.85 -10.74,5.55l1.14 -8.51c3.91,-2.69 8.01,-4.04 12.27,-4.04 7.65,0 11.03,3.38 10.13,10.15l-2.03 15.21c-0.21,1.55 0.16,2.33 1.1,2.33 0.71,0 1.86,-0.62 3.46,-1.87zm-13.16 0.15l1.08 -8.08c-3.02,1.22 -5.13,2.33 -6.31,3.31 -1.2,0.98 -1.9,2.23 -2.1,3.74 -0.13,0.97 0.02,1.8 0.47,2.5 0.45,0.69 1.05,1.04 1.81,1.04 1.61,0 3.3,-0.84 5.05,-2.51zm27.81 -25.25l-0.38 2.89c2.6,-2.4 5.35,-3.61 8.24,-3.61 3.52,0 6.28,1.64 8.28,4.92 1.99,3.28 2.67,7.29 2.03,12.05 -0.71,5.35 -2.51,9.64 -5.38,12.87 -2.87,3.23 -6.31,4.85 -10.33,4.85 -2.5,0 -4.72,-0.76 -6.68,-2.29l-2.42 18.15 -8.52 0 6.64 -49.83 8.52 0zm-1.25 9.4l-2.05 15.37c1.41,1.47 2.97,2.2 4.65,2.2 2.07,0 3.84,-0.91 5.3,-2.74 1.46,-1.84 2.4,-4.31 2.81,-7.43 0.43,-3.18 0.2,-5.67 -0.69,-7.43 -0.88,-1.77 -2.34,-2.66 -4.37,-2.66 -1.7,0 -3.59,0.9 -5.65,2.69zm35.52 -9.4l-0.38 2.89c2.6,-2.4 5.35,-3.61 8.24,-3.61 3.51,0 6.27,1.64 8.27,4.92 2,3.28 2.68,7.29 2.04,12.05 -0.71,5.35 -2.51,9.64 -5.38,12.87 -2.87,3.23 -6.32,4.85 -10.33,4.85 -2.5,0 -4.72,-0.76 -6.68,-2.29l-2.42 18.15 -8.53 0 6.65 -49.83 8.52 0zm-1.25 9.4l-2.05 15.37c1.41,1.47 2.97,2.2 4.65,2.2 2.07,0 3.84,-0.91 5.29,-2.74 1.46,-1.84 2.4,-4.31 2.82,-7.43 0.42,-3.18 0.19,-5.67 -0.7,-7.43 -0.88,-1.77 -2.34,-2.66 -4.36,-2.66 -1.71,0 -3.59,0.9 -5.65,2.69zm50.55 13.61l-0.88 6.58c-3.64,2.92 -7.87,4.38 -12.67,4.38 -4.77,0 -8.37,-1.58 -10.8,-4.73 -2.43,-3.15 -3.31,-7.3 -2.61,-12.5 0.67,-5.08 2.58,-9.26 5.69,-12.54 3.12,-3.28 6.74,-4.92 10.9,-4.92 4.17,0 7.36,1.74 9.57,5.18 2.21,3.45 2.85,8.07 1.9,13.86l-19.46 0c-0.22,3.03 0.33,5.36 1.69,6.99 1.35,1.64 3.34,2.45 5.99,2.45 3.19,0 6.75,-1.58 10.68,-4.75zm-17.45 -10.17l11.76 0c0.19,-4.9 -1.44,-7.36 -4.9,-7.36 -3.5,0 -5.78,2.46 -6.86,7.36zm35.03 -12.84l-0.63 4.69c2.99,-3.6 6.17,-5.41 9.54,-5.41 2.81,0 5.02,1.11 6.6,3.32 1.6,2.21 2.12,5.37 1.57,9.48l-2.82 21.16 -8.53 0 2.71 -20.29c0.59,-4.45 -0.52,-6.67 -3.33,-6.67 -2.01,0 -4.24,1.82 -6.68,5.49l-2.86 21.47 -8.53 0 4.44 -33.24 8.52 0zm50.06 25.1l-0.78 5.82c-3.1,2.03 -5.9,3.05 -8.39,3.05 -2.67,0 -4.09,-1.25 -4.26,-3.74 -3.3,2.49 -6.44,3.74 -9.42,3.74 -2.11,0 -3.79,-0.82 -5.04,-2.46 -1.26,-1.64 -1.74,-3.54 -1.45,-5.72 0.38,-2.89 1.46,-5.24 3.21,-7.01 1.76,-1.78 6.68,-4.08 14.74,-6.88 0.7,-3.75 -0.63,-5.62 -3.95,-5.62 -3.62,0 -7.19,1.85 -10.73,5.55l1.13 -8.51c3.92,-2.69 8.02,-4.04 12.28,-4.04 7.65,0 11.03,3.38 10.13,10.15l-2.03 15.21c-0.21,1.55 0.16,2.33 1.1,2.33 0.7,0 1.85,-0.62 3.46,-1.87zm-13.17 0.15l1.08 -8.08c-3.01,1.22 -5.12,2.33 -6.31,3.31 -1.2,0.98 -1.89,2.23 -2.09,3.74 -0.13,0.97 0.02,1.8 0.47,2.5 0.44,0.69 1.04,1.04 1.81,1.04 1.6,0 3.29,-0.84 5.04,-2.51zm38.45 -23.5l-0.99 7.41c-2.93,-2.4 -5.78,-3.6 -8.56,-3.6 -2.04,0 -3.18,0.86 -3.41,2.59 -0.06,0.46 0.1,0.9 0.46,1.34 0.36,0.44 1.88,1.35 4.58,2.74 2.69,1.39 4.51,3 5.45,4.84 0.94,1.84 1.27,3.84 0.97,6.04 -0.46,3.46 -1.77,6.14 -3.94,8.03 -2.16,1.89 -5.02,2.83 -8.55,2.83 -3.64,0 -6.76,-0.82 -9.38,-2.44l0.99 -7.37c3.22,1.87 6.02,2.81 8.37,2.81 2.75,0 4.23,-0.82 4.45,-2.46 0.09,-0.64 -0.09,-1.23 -0.52,-1.79 -0.44,-0.57 -2.01,-1.55 -4.73,-2.95 -2.71,-1.4 -4.5,-2.94 -5.35,-4.61 -0.85,-1.67 -1.14,-3.53 -0.86,-5.59 0.4,-3.04 1.76,-5.51 4.07,-7.43 2.31,-1.91 5.15,-2.86 8.52,-2.86 3.24,0 6.05,0.82 8.43,2.47zm-324.46 -39.84l-1.09 6.58c-3.73,2.92 -8.01,4.37 -12.81,4.37 -4.77,0 -8.32,-1.57 -10.65,-4.72 -2.33,-3.15 -3.07,-7.3 -2.21,-12.5 0.84,-5.08 2.87,-9.26 6.09,-12.54 3.22,-3.28 6.9,-4.92 11.06,-4.92 4.17,0 7.3,1.73 9.41,5.18 2.09,3.45 2.58,8.07 1.45,13.86l-19.46 0c-0.32,3.03 0.16,5.36 1.46,6.99 1.3,1.64 3.27,2.45 5.92,2.45 3.19,0 6.8,-1.58 10.83,-4.75zm-17.12 -10.17l11.75 0c0.35,-4.9 -1.2,-7.35 -4.66,-7.35 -3.5,0 -5.86,2.45 -7.09,7.35zm35.61 -12.83l-0.7 4.25c3.43,-3.32 6.84,-4.98 10.23,-4.98 4.66,0 7.52,2.36 8.59,7.08 4.05,-4.72 8,-7.08 11.85,-7.08 3.11,0 5.47,1.17 7.05,3.5 1.59,2.32 2.07,5.36 1.45,9.1l-3.53 21.36 -8.52 0 3.23 -19.51c0.39,-2.36 0.25,-4.18 -0.42,-5.49 -0.65,-1.31 -1.77,-1.96 -3.34,-1.96 -2.49,0 -5.03,1.88 -7.64,5.65l-3.53 21.31 -8.52 0 3.26 -19.73c0.39,-2.33 0.21,-4.12 -0.53,-5.36 -0.74,-1.25 -1.9,-1.87 -3.46,-1.87 -2.24,0 -4.66,1.54 -7.27,4.62l-3.7 22.34 -8.52 0 5.5 -33.23 8.52 0zm70.26 23l-1.09 6.58c-3.74,2.92 -8.01,4.37 -12.82,4.37 -4.77,0 -8.32,-1.57 -10.65,-4.72 -2.33,-3.15 -3.07,-7.3 -2.21,-12.5 0.84,-5.08 2.87,-9.26 6.09,-12.54 3.23,-3.28 6.9,-4.92 11.06,-4.92 4.17,0 7.3,1.73 9.41,5.18 2.09,3.45 2.58,8.07 1.45,13.86l-19.45 0c-0.33,3.03 0.15,5.36 1.45,6.99 1.3,1.64 3.27,2.45 5.92,2.45 3.19,0 6.8,-1.58 10.84,-4.75zm-17.13 -10.17l11.75 0c0.35,-4.9 -1.2,-7.35 -4.66,-7.35 -3.5,0 -5.86,2.45 -7.09,7.35zm35.44 -12.83l-0.78 4.68c3.1,-3.6 6.34,-5.41 9.71,-5.41 2.81,0 4.98,1.11 6.5,3.32 1.52,2.21 1.94,5.37 1.26,9.48l-3.5 21.16 -8.52 0 3.35 -20.29c0.74,-4.45 -0.3,-6.67 -3.12,-6.67 -2,0 -4.29,1.82 -6.85,5.49l-3.55 21.47 -8.52 0 5.49 -33.23 8.53 0zm45.19 0l-1.18 7.13 -9.87 0 -2.27 13.76c-0.28,1.66 -0.12,2.96 0.45,3.92 0.58,0.95 1.52,1.43 2.82,1.43 1.77,0 3.78,-0.65 6.04,-1.95l-1.25 7.57c-2.95,1.4 -5.7,2.09 -8.25,2.09 -3.33,0 -5.73,-1.05 -7.22,-3.18 -1.48,-2.11 -1.89,-5.23 -1.21,-9.32l2.37 -14.32 -3.88 0 0.34 -2.04 13.91 -15.55 1.06 0 -1.73 10.46 9.87 0zm27.05 23l-1.09 6.58c-3.73,2.92 -8.01,4.37 -12.81,4.37 -4.77,0 -8.32,-1.57 -10.65,-4.72 -2.33,-3.15 -3.08,-7.3 -2.22,-12.5 0.84,-5.08 2.88,-9.26 6.09,-12.54 3.23,-3.28 6.91,-4.92 11.06,-4.92 4.18,0 7.31,1.73 9.41,5.18 2.1,3.45 2.59,8.07 1.45,13.86l-19.45 0c-0.32,3.03 0.15,5.36 1.46,6.99 1.3,1.64 3.27,2.45 5.91,2.45 3.2,0 6.81,-1.58 10.84,-4.75zm-17.13 -10.17l11.76 0c0.35,-4.9 -1.21,-7.35 -4.66,-7.35 -3.5,0 -5.87,2.45 -7.1,7.35zm35.67 -12.83l-1.57 9.5 0.12 0c3.6,-6.81 7.04,-10.23 10.33,-10.23 1.57,0 3.28,1.01 5.16,3.02l-3.89 9.24c-1.83,-1.63 -3.38,-2.45 -4.64,-2.45 -1.97,0 -3.89,1.5 -5.72,4.51 -1.85,2.99 -2.82,4.74 -2.9,5.24l-2.38 14.4 -8.52 0 5.49 -33.23 8.52 0zm19.09 -10.89c0.27,-1.6 0.95,-2.96 2.06,-4.09 1.11,-1.12 2.3,-1.68 3.59,-1.68 1.3,0 2.32,0.56 3.05,1.68 0.74,1.13 0.97,2.49 0.71,4.09 -0.26,1.57 -0.94,2.92 -2.05,4.06 -1.11,1.14 -2.31,1.71 -3.62,1.71 -1.29,0 -2.29,-0.57 -3.03,-1.71 -0.73,-1.14 -0.97,-2.49 -0.71,-4.06zm7.2 10.89l-5.5 33.23 -8.52 0 5.5 -33.23 8.52 0zm30.74 25.09l-0.96 5.82c-3.17,2.04 -6,3.04 -8.49,3.04 -2.67,0 -4.05,-1.24 -4.14,-3.73 -3.38,2.49 -6.56,3.73 -9.54,3.73 -2.11,0 -3.77,-0.81 -4.96,-2.45 -1.21,-1.64 -1.63,-3.54 -1.27,-5.72 0.47,-2.89 1.63,-5.24 3.44,-7.01 1.81,-1.78 6.8,-4.08 14.96,-6.88 0.81,-3.75 -0.45,-5.62 -3.78,-5.62 -3.62,0 -7.25,1.85 -10.9,5.55l1.4 -8.51c4,-2.69 8.14,-4.04 12.41,-4.04 7.65,0 10.92,3.38 9.8,10.15l-2.52 15.21c-0.25,1.55 0.09,2.33 1.03,2.33 0.71,0 1.88,-0.62 3.52,-1.87zm-13.17 0.15l1.34 -8.08c-3.06,1.22 -5.2,2.33 -6.42,3.31 -1.23,0.98 -1.96,2.23 -2.21,3.74 -0.16,0.97 -0.04,1.8 0.39,2.5 0.42,0.7 1.01,1.04 1.77,1.04 1.61,0 3.33,-0.84 5.13,-2.51zm29.38 -25.24l-0.78 4.68c3.11,-3.6 6.34,-5.41 9.72,-5.41 2.81,0 4.97,1.11 6.49,3.32 1.52,2.21 1.94,5.37 1.26,9.48l-3.5 21.16 -8.52 0 3.36 -20.29c0.73,-4.45 -0.31,-6.67 -3.12,-6.67 -2.01,0 -4.3,1.82 -6.86,5.49l-3.55 21.47 -8.52 0 5.5 -33.23 8.52 0zm46.06 -15.94l17.89 0c4.05,0 7.04,1.44 8.96,4.33 1.91,2.88 2.54,6.29 1.89,10.24 -0.67,4.08 -2.44,7.58 -5.28,10.49 -2.84,2.9 -6.3,4.36 -10.38,4.36l-7.95 0 -3.27 19.75 -9.99 0 8.13 -49.17zm8.5 9.01l-1.88 11.39 4.64 0c4.16,0 6.55,-1.89 7.17,-5.69 0.36,-2.14 0.04,-3.62 -0.93,-4.45 -0.97,-0.83 -2.79,-1.25 -5.47,-1.25l-3.53 0zm30.05 -9.01l17.88 0c4.06,0 7.04,1.44 8.97,4.33 1.91,2.88 2.54,6.29 1.89,10.24 -0.68,4.08 -2.44,7.58 -5.28,10.49 -2.84,2.9 -6.31,4.36 -10.38,4.36l-7.96 0 -3.26 19.75 -9.99 0 8.13 -49.17zm8.5 9.01l-1.88 11.39 4.64 0c4.15,0 6.54,-1.89 7.17,-5.69 0.35,-2.14 0.04,-3.62 -0.93,-4.45 -0.97,-0.83 -2.79,-1.25 -5.48,-1.25l-3.52 0zm70.25 -9.01l-8.13 49.17 -8.37 0 -16.99 -31.5 -5.21 31.5 -9.99 0 8.13 -49.17 9.16 0 16.44 30.05 4.96 -30.05 10 0zm-3.72 49.89l18.3 -50.61 5.98 0 -18.36 50.61 -5.92 0z"/>
  </g>
 </g>
</svg>
